<?xml version="1.0" encoding="UTF-8" standalone="no"?>
<!DOCTYPE svg PUBLIC "-//W3C//DTD SVG 1.1//EN"
 "http://www.w3.org/Graphics/SVG/1.1/DTD/svg11.dtd">
<!-- Generated by graphviz version 2.26.3 (20100126.1600)
 -->
<!-- Title: controllers_diagram Pages: 1 -->
<svg width="392pt" height="247pt"
 viewBox="0.00 0.00 392.00 247.00" xmlns="http://www.w3.org/2000/svg" xmlns:xlink="http://www.w3.org/1999/xlink">
<g id="graph1" class="graph" transform="scale(1 1) rotate(0) translate(4 243)">
<title>controllers_diagram</title>
<polygon fill="white" stroke="white" points="-4,5 -4,-243 389,-243 389,5 -4,5"/>
<!-- _diagram_info -->
<g id="node1" class="node"><title>_diagram_info</title>
<text text-anchor="start" x="9" y="-78.3" font-family="Times Roman,serif" font-size="13.00">Controllers diagram</text>
<text text-anchor="start" x="9" y="-61.3" font-family="Times Roman,serif" font-size="13.00">Date: Jul 01 2014 &#45; 13:21</text>
<text text-anchor="start" x="9" y="-44.3" font-family="Times Roman,serif" font-size="13.00">Migration version: 20131018214212</text>
<text text-anchor="start" x="9" y="-27.3" font-family="Times Roman,serif" font-size="13.00">Generated by RailRoady 1.1.1</text>
<text text-anchor="start" x="9" y="-10.3" font-family="Times Roman,serif" font-size="13.00">http://railroady.prestonlee.com</text>
</g>
<!-- ApplicationController -->
<g id="node2" class="node"><title>ApplicationController</title>
<polyline fill="none" stroke="black" points="234,-137.5 371,-137.5 "/>
<path fill="none" stroke="black" d="M371,-137.5C377,-137.5 383,-143.5 383,-149.5"/>
<polyline fill="none" stroke="black" points="383,-149.5 383,-225.5 "/>
<path fill="none" stroke="black" d="M383,-225.5C383,-231.5 377,-237.5 371,-237.5"/>
<polyline fill="none" stroke="black" points="371,-237.5 234,-237.5 "/>
<path fill="none" stroke="black" d="M234,-237.5C228,-237.5 222,-231.5 222,-225.5"/>
<polyline fill="none" stroke="black" points="222,-225.5 222,-149.5 "/>
<path fill="none" stroke="black" d="M222,-149.5C222,-143.5 228,-137.5 234,-137.5"/>
<text text-anchor="middle" x="302.5" y="-220.9" font-family="Times Roman,serif" font-size="14.00">ApplicationController</text>
<polyline fill="none" stroke="black" points="222,-211.5 383,-211.5 "/>
<polyline fill="none" stroke="black" points="222,-187.5 383,-187.5 "/>
<polyline fill="none" stroke="black" points="222,-163.5 383,-163.5 "/>
<text text-anchor="start" x="230" y="-146.9" font-family="Times Roman,serif" font-size="14.00">_layout</text>
</g>
</g>
</svg>
