<?xml version="1.0" encoding="UTF-8" standalone="no"?>
<!DOCTYPE svg PUBLIC "-//W3C//DTD SVG 1.1//EN"
 "http://www.w3.org/Graphics/SVG/1.1/DTD/svg11.dtd">
<!-- Generated by graphviz version 2.26.3 (20100126.1600)
 -->
<!-- Title: models_diagram Pages: 1 -->
<svg width="1467pt" height="530pt"
 viewBox="0.00 0.00 1467.00 530.00" xmlns="http://www.w3.org/2000/svg" xmlns:xlink="http://www.w3.org/1999/xlink">
<g id="graph1" class="graph" transform="scale(1 1) rotate(0) translate(4 526)">
<title>models_diagram</title>
<polygon fill="white" stroke="white" points="-4,5 -4,-526 1464,-526 1464,5 -4,5"/>
<!-- _diagram_info -->
<g id="node1" class="node"><title>_diagram_info</title>
<text text-anchor="start" x="687" y="-505.8" font-family="Times Roman,serif" font-size="13.00">Models diagram</text>
<text text-anchor="start" x="687" y="-488.8" font-family="Times Roman,serif" font-size="13.00">Date: Jul 01 2014 &#45; 13:20</text>
<text text-anchor="start" x="687" y="-471.8" font-family="Times Roman,serif" font-size="13.00">Migration version: 20131018214212</text>
<text text-anchor="start" x="687" y="-454.8" font-family="Times Roman,serif" font-size="13.00">Generated by RailRoady 1.1.1</text>
<text text-anchor="start" x="687" y="-437.8" font-family="Times Roman,serif" font-size="13.00">http://railroady.prestonlee.com</text>
</g>
<!-- RepositoryManager::RepoFolder -->
<g id="node2" class="node"><title>RepositoryManager::RepoFolder</title>
<ellipse fill="none" stroke="black" cx="487" cy="-111" rx="164.963" ry="18.3848"/>
<text text-anchor="middle" x="487" y="-107.4" font-family="Times Roman,serif" font-size="14.00">RepositoryManager::RepoFolder</text>
</g>
<!-- RepositoryManager::SharingsMember -->
<g id="node3" class="node"><title>RepositoryManager::SharingsMember</title>
<ellipse fill="none" stroke="black" cx="1209" cy="-19" rx="193.247" ry="18.3848"/>
<text text-anchor="middle" x="1209" y="-15.4" font-family="Times Roman,serif" font-size="14.00">RepositoryManager::SharingsMember</text>
</g>
<!-- RepositoryManager::RepoItem -->
<g id="node4" class="node"><title>RepositoryManager::RepoItem</title>
<ellipse fill="none" stroke="black" cx="374" cy="-203" rx="157.892" ry="18.3848"/>
<text text-anchor="middle" x="374" y="-199.4" font-family="Times Roman,serif" font-size="14.00">RepositoryManager::RepoItem</text>
</g>
<!-- RepositoryManager::RepoItem&#45;&gt;RepositoryManager::RepoFolder -->
<g id="edge2" class="edge"><title>RepositoryManager::RepoItem&#45;&gt;RepositoryManager::RepoFolder</title>
<path fill="none" stroke="black" d="M396.596,-184.604C416.304,-168.558 444.747,-145.401 464.444,-129.365"/>
</g>
<!-- RepositoryManager::RepoFile -->
<g id="node5" class="node"><title>RepositoryManager::RepoFile</title>
<ellipse fill="none" stroke="black" cx="152" cy="-111" rx="152.028" ry="18.3848"/>
<text text-anchor="middle" x="152" y="-107.4" font-family="Times Roman,serif" font-size="14.00">RepositoryManager::RepoFile</text>
</g>
<!-- RepositoryManager::RepoItem&#45;&gt;RepositoryManager::RepoFile -->
<g id="edge10" class="edge"><title>RepositoryManager::RepoItem&#45;&gt;RepositoryManager::RepoFile</title>
<path fill="none" stroke="black" d="M330.933,-185.152C291.718,-168.901 234.124,-145.033 194.947,-128.798"/>
</g>
<!-- RepositoryManager::Sharing -->
<g id="node6" class="node"><title>RepositoryManager::Sharing</title>
<ellipse fill="none" stroke="black" cx="948" cy="-111" rx="149.907" ry="18.3848"/>
<text text-anchor="middle" x="948" y="-107.4" font-family="Times Roman,serif" font-size="14.00">RepositoryManager::Sharing</text>
</g>
<!-- RepositoryManager::RepoItem&#45;&gt;RepositoryManager::Sharing -->
<g id="edge6" class="edge"><title>RepositoryManager::RepoItem&#45;&gt;RepositoryManager::Sharing</title>
<path fill="none" stroke="#afdcb7" d="M475.484,-186.734C580.008,-169.981 741.978,-144.021 846.506,-127.267"/>
<ellipse fill="none" stroke="#afdcb7" cx="471.45" cy="-187.381" rx="4.00001" ry="4.00001"/>
<polygon fill="#afdcb7" stroke="#afdcb7" points="846.564,-127.258 857.15,-130.119 851.501,-126.467 856.438,-125.675 856.438,-125.675 856.438,-125.675 851.501,-126.467 855.726,-121.232 846.564,-127.258 846.564,-127.258"/>
<text text-anchor="middle" x="742" y="-153.4" font-family="Times Roman,serif" font-size="14.00">sharings</text>
</g>
<!-- RepositoryManager::Sharing&#45;&gt;RepositoryManager::SharingsMember -->
<g id="edge12" class="edge"><title>RepositoryManager::Sharing&#45;&gt;RepositoryManager::SharingsMember</title>
<path fill="none" stroke="#fdf732" d="M958.578,-85.263C964.263,-74.5715 972.33,-63.0389 983,-56 997.385,-46.5098 1027.95,-39.2041 1062.07,-33.6916"/>
<ellipse fill="none" stroke="#fdf732" cx="956.792" cy="-88.8786" rx="4.00002" ry="4.00002"/>
<polygon fill="#fdf732" stroke="#fdf732" points="1062.39,-33.6425 1072.96,-36.5581 1067.33,-32.8769 1072.27,-32.1112 1072.27,-32.1112 1072.27,-32.1112 1067.33,-32.8769 1071.59,-27.6643 1062.39,-33.6425 1062.39,-33.6425"/>
<text text-anchor="middle" x="1047.5" y="-61.4" font-family="Times Roman,serif" font-size="14.00">sharings_members</text>
</g>
<!-- User -->
<g id="node7" class="node"><title>User</title>
<ellipse fill="none" stroke="black" cx="890" cy="-371" rx="33.9411" ry="18.3848"/>
<text text-anchor="middle" x="890" y="-367.4" font-family="Times Roman,serif" font-size="14.00">User</text>
</g>
<!-- User&#45;&gt;RepositoryManager::SharingsMember -->
<g id="edge20" class="edge"><title>User&#45;&gt;RepositoryManager::SharingsMember</title>
<path fill="none" stroke="#8ab60b" d="M930.696,-364.357C1016.56,-349.423 1211.55,-310.367 1250,-258 1297.07,-193.895 1252.35,-94.2583 1225.67,-46.4348"/>
<ellipse fill="none" stroke="#8ab60b" cx="926.678" cy="-365.048" rx="4.00001" ry="4.00001"/>
<polygon fill="#8ab60b" stroke="#8ab60b" points="1225.58,-46.2669 1224.52,-35.3523 1223.09,-41.9269 1220.61,-37.5869 1220.61,-37.5869 1220.61,-37.5869 1223.09,-41.9269 1216.7,-39.8214 1225.58,-46.2669 1225.58,-46.2669"/>
<text text-anchor="middle" x="1335.5" y="-199.4" font-family="Times Roman,serif" font-size="14.00">sharings_members</text>
</g>
<!-- User&#45;&gt;RepositoryManager::RepoItem -->
<g id="edge24" class="edge"><title>User&#45;&gt;RepositoryManager::RepoItem</title>
<path fill="none" stroke="#2002a4" d="M847.644,-370.493C714.981,-368.445 314.216,-358.585 279,-314 254.506,-282.989 295.01,-248.612 330.471,-226.452"/>
<ellipse fill="none" stroke="#2002a4" cx="851.988" cy="-370.557" rx="4" ry="4"/>
<polygon fill="#2002a4" stroke="#2002a4" points="330.779,-226.266 341.665,-224.941 335.057,-223.678 339.336,-221.091 339.336,-221.091 339.336,-221.091 335.057,-223.678 337.007,-217.24 330.779,-226.266 330.779,-226.266"/>
<text text-anchor="middle" x="317" y="-291.4" font-family="Times Roman,serif" font-size="14.00">repo_items</text>
</g>
<!-- User&#45;&gt;RepositoryManager::RepoItem -->
<g id="edge26" class="edge"><title>User&#45;&gt;RepositoryManager::RepoItem</title>
<path fill="none" stroke="#16dd1f" d="M845.707,-369.32C687.973,-363.123 161.74,-340.524 138,-314 93.3319,-264.094 179.081,-234.801 259.444,-218.962"/>
<polygon fill="#16dd1f" stroke="#16dd1f" points="845.993,-369.331 855.81,-374.218 850.99,-369.526 855.986,-369.721 855.986,-369.721 855.986,-369.721 850.99,-369.526 856.161,-365.225 845.993,-369.331 845.993,-369.331"/>
<polygon fill="#16dd1f" stroke="#16dd1f" points="259.892,-218.877 270.558,-221.424 264.804,-217.94 269.715,-217.003 269.715,-217.003 269.715,-217.003 264.804,-217.94 268.872,-212.583 259.892,-218.877 259.892,-218.877"/>
<text text-anchor="middle" x="203" y="-291.4" font-family="Times Roman,serif" font-size="14.00">shared_repo_items</text>
</g>
<!-- User&#45;&gt;RepositoryManager::RepoItem -->
<g id="edge28" class="edge"><title>User&#45;&gt;RepositoryManager::RepoItem</title>
<path fill="none" stroke="#bba377" d="M847.554,-370.539C741.485,-368.702 467.868,-359.555 391,-314 377.385,-305.931 352.173,-272.957 347,-258 344.385,-250.439 344.52,-247.606 347,-240 348.093,-236.647 349.618,-233.346 351.391,-230.179"/>
<ellipse fill="none" stroke="#bba377" cx="851.796" cy="-370.607" rx="4" ry="4"/>
<polygon fill="#bba377" stroke="#bba377" points="351.462,-230.07 360.676,-224.124 354.18,-225.874 356.899,-221.677 356.899,-221.677 356.899,-221.677 354.18,-225.874 353.122,-219.231 351.462,-230.07 351.462,-230.07"/>
<text text-anchor="middle" x="447" y="-291.4" font-family="Times Roman,serif" font-size="14.00">root_repo_items</text>
</g>
<!-- User&#45;&gt;RepositoryManager::RepoItem -->
<g id="edge30" class="edge"><title>User&#45;&gt;RepositoryManager::RepoItem</title>
<path fill="none" stroke="#aa8bd1" d="M849.393,-360.485C764.413,-338.57 570.151,-288.967 503,-276 475.013,-270.596 395.076,-279.18 376,-258 369.681,-250.984 367.943,-241.191 368.19,-231.808"/>
<polygon fill="#aa8bd1" stroke="#aa8bd1" points="849.516,-360.517 858.074,-367.373 854.357,-361.766 859.198,-363.016 859.198,-363.016 859.198,-363.016 854.357,-361.766 860.323,-358.659 849.516,-360.517 849.516,-360.517"/>
<polygon fill="#aa8bd1" stroke="#aa8bd1" points="368.218,-231.515 373.653,-221.991 368.696,-226.537 369.174,-221.56 369.174,-221.56 369.174,-221.56 368.696,-226.537 364.694,-221.13 368.218,-231.515 368.218,-231.515"/>
<text text-anchor="middle" x="749" y="-291.4" font-family="Times Roman,serif" font-size="14.00">root_shared_repo_items</text>
</g>
<!-- User&#45;&gt;RepositoryManager::Sharing -->
<g id="edge22" class="edge"><title>User&#45;&gt;RepositoryManager::Sharing</title>
<path fill="none" stroke="#0d185e" d="M923.166,-354.886C946.21,-343.61 977.583,-328.102 1005,-314 1052.03,-289.809 1065.67,-286.852 1110,-258 1120.88,-250.919 1122.75,-247.962 1133,-240 1175.55,-206.955 1205.23,-214.342 1229,-166 1232.53,-158.821 1234.27,-154.015 1229,-148 1218.97,-136.564 1153.07,-127.543 1087.61,-121.272"/>
<ellipse fill="none" stroke="#0d185e" cx="919.282" cy="-356.784" rx="4.00002" ry="4.00002"/>
<polygon fill="#0d185e" stroke="#0d185e" points="1087.5,-121.262 1077.96,-115.848 1082.52,-120.795 1077.54,-120.328 1077.54,-120.328 1077.54,-120.328 1082.52,-120.795 1077.12,-124.809 1087.5,-121.262 1087.5,-121.262"/>
<text text-anchor="middle" x="1191.5" y="-245.4" font-family="Times Roman,serif" font-size="14.00">sharings_owners</text>
</g>
<!-- User&#45;&gt;RepositoryManager::Sharing -->
<g id="edge18" class="edge"><title>User&#45;&gt;RepositoryManager::Sharing</title>
<path fill="none" stroke="#c7e657" d="M921.878,-351.715C959.263,-327.016 1019.27,-280.345 1044,-222 1050.59,-206.451 1051.5,-199.131 1044,-184 1033.51,-162.853 1013.65,-146.174 994.694,-134.13"/>
<polygon fill="#c7e657" stroke="#c7e657" points="921.751,-351.798 910.91,-353.448 917.552,-354.512 913.353,-357.227 913.353,-357.227 913.353,-357.227 917.552,-354.512 915.796,-361.006 921.751,-351.798 921.751,-351.798"/>
<polygon fill="#c7e657" stroke="#c7e657" points="994.643,-134.099 988.417,-125.072 990.365,-131.511 986.087,-128.922 986.087,-128.922 986.087,-128.922 990.365,-131.511 983.758,-132.772 994.643,-134.099 994.643,-134.099"/>
<text text-anchor="middle" x="1064" y="-245.4" font-family="Times Roman,serif" font-size="14.00">sharings</text>
</g>
<!-- Group -->
<g id="node8" class="node"><title>Group</title>
<ellipse fill="none" stroke="black" cx="890" cy="-295" rx="41.2167" ry="18.3848"/>
<text text-anchor="middle" x="890" y="-291.4" font-family="Times Roman,serif" font-size="14.00">Group</text>
</g>
<!-- User&#45;&gt;Group -->
<g id="edge16" class="edge"><title>User&#45;&gt;Group</title>
<path fill="none" stroke="#36611d" d="M890,-341.938C890,-335.986 890,-329.725 890,-323.783"/>
<polygon fill="#36611d" stroke="#36611d" points="890,-342.213 885.5,-352.213 890,-347.213 890,-352.213 890,-352.213 890,-352.213 890,-347.213 894.5,-352.214 890,-342.213 890,-342.213"/>
<polygon fill="#36611d" stroke="#36611d" points="890,-323.57 894.5,-313.57 890,-318.57 890,-313.57 890,-313.57 890,-313.57 890,-318.57 885.5,-313.57 890,-323.57 890,-323.57"/>
</g>
<!-- Group&#45;&gt;RepositoryManager::SharingsMember -->
<g id="edge36" class="edge"><title>Group&#45;&gt;RepositoryManager::SharingsMember</title>
<path fill="none" stroke="#46b0a2" d="M936.786,-287.177C992.558,-277.696 1079.04,-262.437 1085,-258 1103.69,-244.087 1168.5,-106.848 1196.24,-46.8428"/>
<ellipse fill="none" stroke="#46b0a2" cx="932.738" cy="-287.864" rx="4.00001" ry="4.00001"/>
<polygon fill="#46b0a2" stroke="#46b0a2" points="1196.32,-46.655 1204.6,-39.4584 1198.42,-42.1145 1200.51,-37.574 1200.51,-37.574 1200.51,-37.574 1198.42,-42.1145 1196.42,-35.6895 1196.32,-46.655 1196.32,-46.655"/>
<text text-anchor="middle" x="1211.5" y="-153.4" font-family="Times Roman,serif" font-size="14.00">sharings_members</text>
</g>
<!-- Group&#45;&gt;RepositoryManager::RepoItem -->
<g id="edge40" class="edge"><title>Group&#45;&gt;RepositoryManager::RepoItem</title>
<path fill="none" stroke="#480359" d="M841.289,-290.616C805.323,-285.982 755.897,-276.626 716,-258 704.238,-252.509 705.007,-244.932 693,-240 662.341,-227.406 591.351,-218.53 524.106,-212.634"/>
<ellipse fill="none" stroke="#480359" cx="845.698" cy="-291.155" rx="4.00001" ry="4.00001"/>
<polygon fill="#480359" stroke="#480359" points="523.749,-212.603 514.17,-207.266 518.767,-212.176 513.786,-211.749 513.786,-211.749 513.786,-211.749 518.767,-212.176 513.401,-216.233 523.749,-212.603 523.749,-212.603"/>
<text text-anchor="middle" x="754" y="-245.4" font-family="Times Roman,serif" font-size="14.00">repo_items</text>
</g>
<!-- Group&#45;&gt;RepositoryManager::RepoItem -->
<g id="edge42" class="edge"><title>Group&#45;&gt;RepositoryManager::RepoItem</title>
<path fill="none" stroke="#320068" d="M851.144,-277.713C839.265,-271.934 826.348,-265.133 815,-258 804.01,-251.092 804.073,-244.768 792,-240 746.64,-222.084 634.393,-212.787 537.629,-207.995"/>
<polygon fill="#320068" stroke="#320068" points="851.368,-277.82 858.465,-286.18 855.883,-279.968 860.398,-282.117 860.398,-282.117 860.398,-282.117 855.883,-279.968 862.332,-278.053 851.368,-277.82 851.368,-277.82"/>
<polygon fill="#320068" stroke="#320068" points="537.406,-207.984 527.634,-203.008 532.412,-207.744 527.418,-207.503 527.418,-207.503 527.418,-207.503 532.412,-207.744 527.201,-211.998 537.406,-207.984 537.406,-207.984"/>
<text text-anchor="middle" x="880" y="-245.4" font-family="Times Roman,serif" font-size="14.00">shared_repo_items</text>
</g>
<!-- Group&#45;&gt;RepositoryManager::RepoItem -->
<g id="edge44" class="edge"><title>Group&#45;&gt;RepositoryManager::RepoItem</title>
<path fill="none" stroke="#4b29d8" d="M841.942,-289.807C802.501,-285.668 745.179,-279.934 695,-276 661.377,-273.364 418.707,-278.596 392,-258 383.792,-251.67 379.277,-241.51 376.81,-231.635"/>
<ellipse fill="none" stroke="#4b29d8" cx="846.1" cy="-290.245" rx="4" ry="4"/>
<polygon fill="#4b29d8" stroke="#4b29d8" points="376.774,-231.445 379.334,-220.782 375.844,-226.532 374.913,-221.62 374.913,-221.62 374.913,-221.62 375.844,-226.532 370.492,-222.457 376.774,-231.445 376.774,-231.445"/>
<text text-anchor="middle" x="448" y="-245.4" font-family="Times Roman,serif" font-size="14.00">root_repo_items</text>
</g>
<!-- Group&#45;&gt;RepositoryManager::RepoItem -->
<g id="edge46" class="edge"><title>Group&#45;&gt;RepositoryManager::RepoItem</title>
<path fill="none" stroke="#c68195" d="M839.652,-290.134C739.934,-280.467 526.567,-259.634 523,-258 512.424,-253.157 514.107,-245.758 504,-240 491.41,-232.827 477.329,-226.962 463.21,-222.191"/>
<polygon fill="#c68195" stroke="#c68195" points="839.844,-290.152 849.363,-295.596 844.821,-290.634 849.797,-291.116 849.797,-291.116 849.797,-291.116 844.821,-290.634 850.231,-286.637 839.844,-290.152 839.844,-290.152"/>
<polygon fill="#c68195" stroke="#c68195" points="462.97,-222.114 454.822,-214.775 458.209,-220.587 453.448,-219.06 453.448,-219.06 453.448,-219.06 458.209,-220.587 452.073,-223.345 462.97,-222.114 462.97,-222.114"/>
<text text-anchor="middle" x="606" y="-245.4" font-family="Times Roman,serif" font-size="14.00">root_shared_repo_items</text>
</g>
<!-- Group&#45;&gt;RepositoryManager::Sharing -->
<g id="edge34" class="edge"><title>Group&#45;&gt;RepositoryManager::Sharing</title>
<path fill="none" stroke="#ea867e" d="M936.868,-283.602C949.806,-278.071 962.373,-269.931 970,-258 993.177,-221.745 976.826,-170.352 962.609,-138.923"/>
<polygon fill="#ea867e" stroke="#ea867e" points="936.793,-283.63 925.847,-282.979 932.12,-285.408 927.447,-287.185 927.447,-287.185 927.447,-287.185 932.12,-285.408 929.046,-291.391 936.793,-283.63 936.793,-283.63"/>
<polygon fill="#ea867e" stroke="#ea867e" points="962.591,-138.887 962.378,-127.923 960.451,-134.368 958.311,-129.85 958.311,-129.85 958.311,-129.85 960.451,-134.368 954.244,-131.776 962.591,-138.887 962.591,-138.887"/>
<text text-anchor="middle" x="1011" y="-199.4" font-family="Times Roman,serif" font-size="14.00">sharings</text>
</g>
<!-- Group&#45;&gt;RepositoryManager::Sharing -->
<g id="edge38" class="edge"><title>Group&#45;&gt;RepositoryManager::Sharing</title>
<path fill="none" stroke="#6fa81c" d="M925.782,-277.492C942.218,-267.1 955.893,-253.377 945,-240 920.068,-209.381 882.932,-252.619 858,-222 847.336,-208.904 850.735,-199.247 858,-184 867.743,-163.553 886.321,-146.972 904.08,-134.812"/>
<ellipse fill="none" stroke="#6fa81c" cx="922.073" cy="-279.69" rx="4.00002" ry="4.00002"/>
<polygon fill="#6fa81c" stroke="#6fa81c" points="904.313,-134.66 915.148,-132.969 908.502,-131.93 912.69,-129.199 912.69,-129.199 912.69,-129.199 908.502,-131.93 910.233,-125.429 904.313,-134.66 904.313,-134.66"/>
<text text-anchor="middle" x="916.5" y="-199.4" font-family="Times Roman,serif" font-size="14.00">sharings_owners</text>
</g>
<!-- ActiveRecord::Base -->
<g id="node10" class="node"><title>ActiveRecord::Base</title>
<ellipse fill="none" stroke="black" cx="1051" cy="-475" rx="104.151" ry="18.3848"/>
<text text-anchor="middle" x="1051" y="-471.4" font-family="Times Roman,serif" font-size="14.00">ActiveRecord::Base</text>
</g>
<!-- ActiveRecord::Base&#45;&gt;RepositoryManager::SharingsMember -->
<g id="edge4" class="edge"><title>ActiveRecord::Base&#45;&gt;RepositoryManager::SharingsMember</title>
<path fill="none" stroke="black" d="M1150.29,-469.358C1271.06,-459.714 1459,-434.504 1459,-371 1459,-371 1459,-371 1459,-111 1459,-76.1981 1372.6,-50.519 1301.38,-35.2644"/>
</g>
<!-- ActiveRecord::Base&#45;&gt;RepositoryManager::RepoItem -->
<g id="edge8" class="edge"><title>ActiveRecord::Base&#45;&gt;RepositoryManager::RepoItem</title>
<path fill="none" stroke="black" d="M1015.71,-457.507C993.835,-447.381 964.875,-435.243 938,-428 761.214,-380.353 239.317,-454.571 122,-314 100.094,-287.752 114.799,-259.326 143,-240 160.547,-227.975 202.411,-219.596 245.753,-213.893"/>
</g>
<!-- ActiveRecord::Base&#45;&gt;RepositoryManager::Sharing -->
<g id="edge14" class="edge"><title>ActiveRecord::Base&#45;&gt;RepositoryManager::Sharing</title>
<path fill="none" stroke="black" d="M1145.32,-467.189C1254.95,-455.447 1421,-428.217 1421,-371 1421,-371 1421,-371 1421,-249 1421,-218.205 1420.05,-204.417 1397,-184 1352.1,-144.239 1202.45,-125.962 1088.13,-117.672"/>
</g>
<!-- ActiveRecord::Base&#45;&gt;User -->
<g id="edge32" class="edge"><title>ActiveRecord::Base&#45;&gt;User</title>
<path fill="none" stroke="black" d="M1023.32,-457.122C991.856,-436.795 941.108,-404.014 912.145,-385.305"/>
</g>
<!-- ActiveRecord::Base&#45;&gt;Group -->
<g id="edge48" class="edge"><title>ActiveRecord::Base&#45;&gt;Group</title>
<path fill="none" stroke="black" d="M1034.38,-456.415C1003.04,-421.384 935.675,-346.065 905.348,-312.16"/>
</g>
</g>
</svg>
