<?xml version="1.0" encoding="UTF-8" standalone="no"?>
<!DOCTYPE svg PUBLIC "-//W3C//DTD SVG 1.1//EN"
 "http://www.w3.org/Graphics/SVG/1.1/DTD/svg11.dtd">
<!-- Generated by graphviz version 2.26.3 (20100126.1600)
 -->
<!-- Title: models_diagram Pages: 1 -->
<svg width="1379pt" height="1258pt"
 viewBox="0.00 0.00 1379.46 1258.00" xmlns="http://www.w3.org/2000/svg" xmlns:xlink="http://www.w3.org/1999/xlink">
<g id="graph1" class="graph" transform="scale(1 1) rotate(0) translate(4 1254)">
<title>models_diagram</title>
<polygon fill="white" stroke="white" points="-4,5 -4,-1254 1376.46,-1254 1376.46,5 -4,5"/>
<!-- _diagram_info -->
<g id="node1" class="node"><title>_diagram_info</title>
<text text-anchor="start" x="599.459" y="-1233.8" font-family="Times Roman,serif" font-size="13.00">Models diagram</text>
<text text-anchor="start" x="599.459" y="-1216.8" font-family="Times Roman,serif" font-size="13.00">Date: Jul 01 2014 &#45; 13:20</text>
<text text-anchor="start" x="599.459" y="-1199.8" font-family="Times Roman,serif" font-size="13.00">Migration version: 20131018214212</text>
<text text-anchor="start" x="599.459" y="-1182.8" font-family="Times Roman,serif" font-size="13.00">Generated by RailRoady 1.1.1</text>
<text text-anchor="start" x="599.459" y="-1165.8" font-family="Times Roman,serif" font-size="13.00">http://railroady.prestonlee.com</text>
</g>
<!-- RepositoryManager::RepoFolder -->
<g id="node2" class="node"><title>RepositoryManager::RepoFolder</title>
<polyline fill="none" stroke="black" points="302.459,-199 512.459,-199 "/>
<path fill="none" stroke="black" d="M512.459,-199C518.459,-199 524.459,-205 524.459,-211"/>
<polyline fill="none" stroke="black" points="524.459,-211 524.459,-437 "/>
<path fill="none" stroke="black" d="M524.459,-437C524.459,-443 518.459,-449 512.459,-449"/>
<polyline fill="none" stroke="black" points="512.459,-449 302.459,-449 "/>
<path fill="none" stroke="black" d="M302.459,-449C296.459,-449 290.459,-443 290.459,-437"/>
<polyline fill="none" stroke="black" points="290.459,-437 290.459,-211 "/>
<path fill="none" stroke="black" d="M290.459,-211C290.459,-205 296.459,-199 302.459,-199"/>
<text text-anchor="middle" x="407.459" y="-432.4" font-family="Times Roman,serif" font-size="14.00">RepositoryManager::RepoFolder</text>
<polyline fill="none" stroke="black" points="290.459,-423 524.459,-423 "/>
<text text-anchor="start" x="298.459" y="-406.4" font-family="Times Roman,serif" font-size="14.00">id :integer</text>
<text text-anchor="start" x="298.459" y="-388.4" font-family="Times Roman,serif" font-size="14.00">owner_id :integer</text>
<text text-anchor="start" x="298.459" y="-370.4" font-family="Times Roman,serif" font-size="14.00">owner_type :string</text>
<text text-anchor="start" x="298.459" y="-352.4" font-family="Times Roman,serif" font-size="14.00">sender_id :integer</text>
<text text-anchor="start" x="298.459" y="-334.4" font-family="Times Roman,serif" font-size="14.00">sender_type :string</text>
<text text-anchor="start" x="298.459" y="-316.4" font-family="Times Roman,serif" font-size="14.00">ancestry :string</text>
<text text-anchor="start" x="298.459" y="-298.4" font-family="Times Roman,serif" font-size="14.00">ancestry_depth :integer</text>
<text text-anchor="start" x="298.459" y="-280.4" font-family="Times Roman,serif" font-size="14.00">name :string</text>
<text text-anchor="start" x="298.459" y="-262.4" font-family="Times Roman,serif" font-size="14.00">file_size :float</text>
<text text-anchor="start" x="298.459" y="-244.4" font-family="Times Roman,serif" font-size="14.00">content_type :string</text>
<text text-anchor="start" x="298.459" y="-226.4" font-family="Times Roman,serif" font-size="14.00">file :string</text>
<text text-anchor="start" x="298.459" y="-208.4" font-family="Times Roman,serif" font-size="14.00">type :string</text>
</g>
<!-- RepositoryManager::SharingsMember -->
<g id="node3" class="node"><title>RepositoryManager::SharingsMember</title>
<polyline fill="none" stroke="black" points="985.459,-1 1235.46,-1 "/>
<path fill="none" stroke="black" d="M1235.46,-1C1241.46,-1 1247.46,-7 1247.46,-13"/>
<polyline fill="none" stroke="black" points="1247.46,-13 1247.46,-131 "/>
<path fill="none" stroke="black" d="M1247.46,-131C1247.46,-137 1241.46,-143 1235.46,-143"/>
<polyline fill="none" stroke="black" points="1235.46,-143 985.459,-143 "/>
<path fill="none" stroke="black" d="M985.459,-143C979.459,-143 973.459,-137 973.459,-131"/>
<polyline fill="none" stroke="black" points="973.459,-131 973.459,-13 "/>
<path fill="none" stroke="black" d="M973.459,-13C973.459,-7 979.459,-1 985.459,-1"/>
<text text-anchor="middle" x="1110.46" y="-126.4" font-family="Times Roman,serif" font-size="14.00">RepositoryManager::SharingsMember</text>
<polyline fill="none" stroke="black" points="973.459,-117 1247.46,-117 "/>
<text text-anchor="start" x="981.459" y="-100.4" font-family="Times Roman,serif" font-size="14.00">id :integer</text>
<text text-anchor="start" x="981.459" y="-82.4" font-family="Times Roman,serif" font-size="14.00">sharing_id :integer</text>
<text text-anchor="start" x="981.459" y="-64.4" font-family="Times Roman,serif" font-size="14.00">member_id :integer</text>
<text text-anchor="start" x="981.459" y="-46.4" font-family="Times Roman,serif" font-size="14.00">member_type :string</text>
<text text-anchor="start" x="981.459" y="-28.4" font-family="Times Roman,serif" font-size="14.00">can_add :boolean</text>
<text text-anchor="start" x="981.459" y="-10.4" font-family="Times Roman,serif" font-size="14.00">can_remove :boolean</text>
</g>
<!-- RepositoryManager::RepoItem -->
<g id="node4" class="node"><title>RepositoryManager::RepoItem</title>
<polyline fill="none" stroke="black" points="186.459,-505 386.459,-505 "/>
<path fill="none" stroke="black" d="M386.459,-505C392.459,-505 398.459,-511 398.459,-517"/>
<polyline fill="none" stroke="black" points="398.459,-517 398.459,-743 "/>
<path fill="none" stroke="black" d="M398.459,-743C398.459,-749 392.459,-755 386.459,-755"/>
<polyline fill="none" stroke="black" points="386.459,-755 186.459,-755 "/>
<path fill="none" stroke="black" d="M186.459,-755C180.459,-755 174.459,-749 174.459,-743"/>
<polyline fill="none" stroke="black" points="174.459,-743 174.459,-517 "/>
<path fill="none" stroke="black" d="M174.459,-517C174.459,-511 180.459,-505 186.459,-505"/>
<text text-anchor="middle" x="286.459" y="-738.4" font-family="Times Roman,serif" font-size="14.00">RepositoryManager::RepoItem</text>
<polyline fill="none" stroke="black" points="174.459,-729 398.459,-729 "/>
<text text-anchor="start" x="182.459" y="-712.4" font-family="Times Roman,serif" font-size="14.00">id :integer</text>
<text text-anchor="start" x="182.459" y="-694.4" font-family="Times Roman,serif" font-size="14.00">owner_id :integer</text>
<text text-anchor="start" x="182.459" y="-676.4" font-family="Times Roman,serif" font-size="14.00">owner_type :string</text>
<text text-anchor="start" x="182.459" y="-658.4" font-family="Times Roman,serif" font-size="14.00">sender_id :integer</text>
<text text-anchor="start" x="182.459" y="-640.4" font-family="Times Roman,serif" font-size="14.00">sender_type :string</text>
<text text-anchor="start" x="182.459" y="-622.4" font-family="Times Roman,serif" font-size="14.00">ancestry :string</text>
<text text-anchor="start" x="182.459" y="-604.4" font-family="Times Roman,serif" font-size="14.00">ancestry_depth :integer</text>
<text text-anchor="start" x="182.459" y="-586.4" font-family="Times Roman,serif" font-size="14.00">name :string</text>
<text text-anchor="start" x="182.459" y="-568.4" font-family="Times Roman,serif" font-size="14.00">file_size :float</text>
<text text-anchor="start" x="182.459" y="-550.4" font-family="Times Roman,serif" font-size="14.00">content_type :string</text>
<text text-anchor="start" x="182.459" y="-532.4" font-family="Times Roman,serif" font-size="14.00">file :string</text>
<text text-anchor="start" x="182.459" y="-514.4" font-family="Times Roman,serif" font-size="14.00">type :string</text>
</g>
<!-- RepositoryManager::RepoItem&#45;&gt;RepositoryManager::RepoFolder -->
<g id="edge2" class="edge"><title>RepositoryManager::RepoItem&#45;&gt;RepositoryManager::RepoFolder</title>
<path fill="none" stroke="black" d="M336.024,-504.655C343.268,-486.335 350.729,-467.467 357.972,-449.15"/>
</g>
<!-- RepositoryManager::RepoFile -->
<g id="node5" class="node"><title>RepositoryManager::RepoFile</title>
<polyline fill="none" stroke="black" points="69.9595,-199 260.959,-199 "/>
<path fill="none" stroke="black" d="M260.959,-199C266.959,-199 272.959,-205 272.959,-211"/>
<polyline fill="none" stroke="black" points="272.959,-211 272.959,-437 "/>
<path fill="none" stroke="black" d="M272.959,-437C272.959,-443 266.959,-449 260.959,-449"/>
<polyline fill="none" stroke="black" points="260.959,-449 69.9595,-449 "/>
<path fill="none" stroke="black" d="M69.9595,-449C63.9595,-449 57.9595,-443 57.9595,-437"/>
<polyline fill="none" stroke="black" points="57.9595,-437 57.9595,-211 "/>
<path fill="none" stroke="black" d="M57.9595,-211C57.9595,-205 63.9595,-199 69.9595,-199"/>
<text text-anchor="middle" x="165.459" y="-432.4" font-family="Times Roman,serif" font-size="14.00">RepositoryManager::RepoFile</text>
<polyline fill="none" stroke="black" points="57.9595,-423 272.959,-423 "/>
<text text-anchor="start" x="65.9595" y="-406.4" font-family="Times Roman,serif" font-size="14.00">id :integer</text>
<text text-anchor="start" x="65.9595" y="-388.4" font-family="Times Roman,serif" font-size="14.00">owner_id :integer</text>
<text text-anchor="start" x="65.9595" y="-370.4" font-family="Times Roman,serif" font-size="14.00">owner_type :string</text>
<text text-anchor="start" x="65.9595" y="-352.4" font-family="Times Roman,serif" font-size="14.00">sender_id :integer</text>
<text text-anchor="start" x="65.9595" y="-334.4" font-family="Times Roman,serif" font-size="14.00">sender_type :string</text>
<text text-anchor="start" x="65.9595" y="-316.4" font-family="Times Roman,serif" font-size="14.00">ancestry :string</text>
<text text-anchor="start" x="65.9595" y="-298.4" font-family="Times Roman,serif" font-size="14.00">ancestry_depth :integer</text>
<text text-anchor="start" x="65.9595" y="-280.4" font-family="Times Roman,serif" font-size="14.00">name :string</text>
<text text-anchor="start" x="65.9595" y="-262.4" font-family="Times Roman,serif" font-size="14.00">file_size :float</text>
<text text-anchor="start" x="65.9595" y="-244.4" font-family="Times Roman,serif" font-size="14.00">content_type :string</text>
<text text-anchor="start" x="65.9595" y="-226.4" font-family="Times Roman,serif" font-size="14.00">file :string</text>
<text text-anchor="start" x="65.9595" y="-208.4" font-family="Times Roman,serif" font-size="14.00">type :string</text>
</g>
<!-- RepositoryManager::RepoItem&#45;&gt;RepositoryManager::RepoFile -->
<g id="edge10" class="edge"><title>RepositoryManager::RepoItem&#45;&gt;RepositoryManager::RepoFile</title>
<path fill="none" stroke="black" d="M236.895,-504.655C229.651,-486.335 222.19,-467.467 214.947,-449.15"/>
</g>
<!-- RepositoryManager::Sharing -->
<g id="node6" class="node"><title>RepositoryManager::Sharing</title>
<polyline fill="none" stroke="black" points="788.459,-208 976.459,-208 "/>
<path fill="none" stroke="black" d="M976.459,-208C982.459,-208 988.459,-214 988.459,-220"/>
<polyline fill="none" stroke="black" points="988.459,-220 988.459,-428 "/>
<path fill="none" stroke="black" d="M988.459,-428C988.459,-434 982.459,-440 976.459,-440"/>
<polyline fill="none" stroke="black" points="976.459,-440 788.459,-440 "/>
<path fill="none" stroke="black" d="M788.459,-440C782.459,-440 776.459,-434 776.459,-428"/>
<polyline fill="none" stroke="black" points="776.459,-428 776.459,-220 "/>
<path fill="none" stroke="black" d="M776.459,-220C776.459,-214 782.459,-208 788.459,-208"/>
<text text-anchor="middle" x="882.459" y="-423.4" font-family="Times Roman,serif" font-size="14.00">RepositoryManager::Sharing</text>
<polyline fill="none" stroke="black" points="776.459,-414 988.459,-414 "/>
<text text-anchor="start" x="784.459" y="-397.4" font-family="Times Roman,serif" font-size="14.00">id :integer</text>
<text text-anchor="start" x="784.459" y="-379.4" font-family="Times Roman,serif" font-size="14.00">owner_id :integer</text>
<text text-anchor="start" x="784.459" y="-361.4" font-family="Times Roman,serif" font-size="14.00">owner_type :string</text>
<text text-anchor="start" x="784.459" y="-343.4" font-family="Times Roman,serif" font-size="14.00">creator_id :integer</text>
<text text-anchor="start" x="784.459" y="-325.4" font-family="Times Roman,serif" font-size="14.00">creator_type :string</text>
<text text-anchor="start" x="784.459" y="-307.4" font-family="Times Roman,serif" font-size="14.00">repo_item_id :integer</text>
<text text-anchor="start" x="784.459" y="-289.4" font-family="Times Roman,serif" font-size="14.00">can_create :boolean</text>
<text text-anchor="start" x="784.459" y="-271.4" font-family="Times Roman,serif" font-size="14.00">can_read :boolean</text>
<text text-anchor="start" x="784.459" y="-253.4" font-family="Times Roman,serif" font-size="14.00">can_update :boolean</text>
<text text-anchor="start" x="784.459" y="-235.4" font-family="Times Roman,serif" font-size="14.00">can_delete :boolean</text>
<text text-anchor="start" x="784.459" y="-217.4" font-family="Times Roman,serif" font-size="14.00">can_share :boolean</text>
</g>
<!-- RepositoryManager::RepoItem&#45;&gt;RepositoryManager::Sharing -->
<g id="edge6" class="edge"><title>RepositoryManager::RepoItem&#45;&gt;RepositoryManager::Sharing</title>
<path fill="none" stroke="#cbb150" d="M405.949,-568.651C511.201,-514.612 663.504,-436.417 767.406,-383.071"/>
<ellipse fill="none" stroke="#cbb150" cx="402.121" cy="-570.617" rx="4.00002" ry="4.00002"/>
<polygon fill="#cbb150" stroke="#cbb150" points="767.47,-383.039 778.421,-382.474 771.918,-380.755 776.366,-378.471 776.366,-378.471 776.366,-378.471 771.918,-380.755 774.31,-374.468 767.47,-383.039 767.47,-383.039"/>
<text text-anchor="middle" x="613.459" y="-473.4" font-family="Times Roman,serif" font-size="14.00">sharings</text>
</g>
<!-- RepositoryManager::Sharing&#45;&gt;RepositoryManager::SharingsMember -->
<g id="edge12" class="edge"><title>RepositoryManager::Sharing&#45;&gt;RepositoryManager::SharingsMember</title>
<path fill="none" stroke="#336d95" d="M858.961,-199.737C861.131,-186.256 865.637,-173.338 873.459,-162 885.575,-144.439 922.504,-127.272 963.715,-112.718"/>
<ellipse fill="none" stroke="#336d95" cx="858.45" cy="-203.763" rx="4.00001" ry="4.00001"/>
<polygon fill="#336d95" stroke="#336d95" points="963.962,-112.632 974.884,-113.619 968.688,-110.999 973.414,-109.366 973.414,-109.366 973.414,-109.366 968.688,-110.999 971.943,-105.112 963.962,-112.632 963.962,-112.632"/>
<text text-anchor="middle" x="937.959" y="-167.4" font-family="Times Roman,serif" font-size="14.00">sharings_members</text>
</g>
<!-- User -->
<g id="node7" class="node"><title>User</title>
<polyline fill="none" stroke="black" points="683.959,-975 824.959,-975 "/>
<path fill="none" stroke="black" d="M824.959,-975C830.959,-975 836.959,-981 836.959,-987"/>
<polyline fill="none" stroke="black" points="836.959,-987 836.959,-1105 "/>
<path fill="none" stroke="black" d="M836.959,-1105C836.959,-1111 830.959,-1117 824.959,-1117"/>
<polyline fill="none" stroke="black" points="824.959,-1117 683.959,-1117 "/>
<path fill="none" stroke="black" d="M683.959,-1117C677.959,-1117 671.959,-1111 671.959,-1105"/>
<polyline fill="none" stroke="black" points="671.959,-1105 671.959,-987 "/>
<path fill="none" stroke="black" d="M671.959,-987C671.959,-981 677.959,-975 683.959,-975"/>
<text text-anchor="middle" x="754.459" y="-1100.4" font-family="Times Roman,serif" font-size="14.00">User</text>
<polyline fill="none" stroke="black" points="671.959,-1091 836.959,-1091 "/>
<text text-anchor="start" x="679.959" y="-1074.4" font-family="Times Roman,serif" font-size="14.00">id :integer</text>
<text text-anchor="start" x="679.959" y="-1056.4" font-family="Times Roman,serif" font-size="14.00">nickname :string</text>
<text text-anchor="start" x="679.959" y="-1038.4" font-family="Times Roman,serif" font-size="14.00">password :string</text>
<text text-anchor="start" x="679.959" y="-1020.4" font-family="Times Roman,serif" font-size="14.00">email :string</text>
<text text-anchor="start" x="679.959" y="-1002.4" font-family="Times Roman,serif" font-size="14.00">created_at :datetime</text>
<text text-anchor="start" x="679.959" y="-984.4" font-family="Times Roman,serif" font-size="14.00">updated_at :datetime</text>
</g>
<!-- User&#45;&gt;RepositoryManager::SharingsMember -->
<g id="edge20" class="edge"><title>User&#45;&gt;RepositoryManager::SharingsMember</title>
<path fill="none" stroke="#88bf98" d="M844.632,-1019.84C942.911,-985.709 1094.08,-915.299 1153.46,-792 1255.54,-580.048 1184.64,-291.431 1139.67,-152.815"/>
<ellipse fill="none" stroke="#88bf98" cx="840.845" cy="-1021.13" rx="4.00001" ry="4.00001"/>
<polygon fill="#88bf98" stroke="#88bf98" points="1139.6,-152.598 1140.75,-141.693 1138.04,-147.847 1136.48,-143.097 1136.48,-143.097 1136.48,-143.097 1138.04,-147.847 1132.2,-144.5 1139.6,-152.598 1139.6,-152.598"/>
<text text-anchor="middle" x="1269.96" y="-626.4" font-family="Times Roman,serif" font-size="14.00">sharings_members</text>
</g>
<!-- User&#45;&gt;RepositoryManager::RepoItem -->
<g id="edge24" class="edge"><title>User&#45;&gt;RepositoryManager::RepoItem</title>
<path fill="none" stroke="#d92053" d="M663.528,-1041.52C522.644,-1032.43 262.003,-1006.32 206.459,-936 168.014,-887.327 179.071,-822.031 203.431,-764.258"/>
<ellipse fill="none" stroke="#d92053" cx="667.81" cy="-1041.79" rx="4" ry="4"/>
<polygon fill="#d92053" stroke="#d92053" points="203.448,-764.218 211.574,-756.854 205.449,-759.636 207.449,-755.054 207.449,-755.054 207.449,-755.054 205.449,-759.636 203.325,-753.253 203.448,-764.218 203.448,-764.218"/>
<text text-anchor="middle" x="244.459" y="-869.4" font-family="Times Roman,serif" font-size="14.00">repo_items</text>
</g>
<!-- User&#45;&gt;RepositoryManager::RepoItem -->
<g id="edge26" class="edge"><title>User&#45;&gt;RepositoryManager::RepoItem</title>
<path fill="none" stroke="#57288e" d="M661.773,-1038.24C479.148,-1022.02 86.9875,-982.154 47.4595,-936 11.0323,-893.467 22.4658,-860.113 47.4595,-810 72.7768,-759.238 119.985,-719.03 165.8,-689.608"/>
<polygon fill="#57288e" stroke="#57288e" points="661.941,-1038.26 671.506,-1043.62 666.921,-1038.7 671.902,-1039.14 671.902,-1039.14 671.902,-1039.14 666.921,-1038.7 672.298,-1034.66 661.941,-1038.26 661.941,-1038.26"/>
<polygon fill="#57288e" stroke="#57288e" points="165.869,-689.565 176.729,-688.049 170.101,-686.903 174.333,-684.24 174.333,-684.24 174.333,-684.24 170.101,-686.903 171.937,-680.431 165.869,-689.565 165.869,-689.565"/>
<text text-anchor="middle" x="112.459" y="-869.4" font-family="Times Roman,serif" font-size="14.00">shared_repo_items</text>
</g>
<!-- User&#45;&gt;RepositoryManager::RepoItem -->
<g id="edge28" class="edge"><title>User&#45;&gt;RepositoryManager::RepoItem</title>
<path fill="none" stroke="#d62275" d="M663.592,-1033.87C550.759,-1017.03 367.179,-983.224 318.459,-936 276.64,-895.464 314.985,-858.313 282.459,-810 275.21,-799.232 265.145,-803.669 259.459,-792 255.955,-784.808 258.719,-781.966 259.459,-774 259.73,-771.091 260.03,-768.154 260.357,-765.196"/>
<ellipse fill="none" stroke="#d62275" cx="667.634" cy="-1034.47" rx="4.00001" ry="4.00001"/>
<polygon fill="#d62275" stroke="#d62275" points="260.381,-765.002 266.037,-755.608 260.975,-760.038 261.569,-755.073 261.569,-755.073 261.569,-755.073 260.975,-760.038 257.101,-754.539 260.381,-765.002 260.381,-765.002"/>
<text text-anchor="middle" x="374.459" y="-869.4" font-family="Times Roman,serif" font-size="14.00">root_repo_items</text>
</g>
<!-- User&#45;&gt;RepositoryManager::RepoItem -->
<g id="edge30" class="edge"><title>User&#45;&gt;RepositoryManager::RepoItem</title>
<path fill="none" stroke="#71d8f5" d="M662.046,-1023.1C608.9,-1006.16 543.714,-978.511 497.459,-936 450.761,-893.081 482.675,-846.003 430.459,-810 404.091,-791.819 308.72,-815.955 287.459,-792 280.315,-783.95 275.284,-774.686 271.894,-764.752"/>
<polygon fill="#71d8f5" stroke="#71d8f5" points="662.273,-1023.17 670.486,-1030.44 667.048,-1024.65 671.822,-1026.14 671.822,-1026.14 671.822,-1026.14 667.048,-1024.65 673.159,-1021.84 662.273,-1023.17 662.273,-1023.17"/>
<polygon fill="#71d8f5" stroke="#71d8f5" points="271.868,-764.658 273.461,-753.808 270.5,-759.849 269.132,-755.039 269.132,-755.039 269.132,-755.039 270.5,-759.849 264.804,-756.27 271.868,-764.658 271.868,-764.658"/>
<text text-anchor="middle" x="580.459" y="-869.4" font-family="Times Roman,serif" font-size="14.00">root_shared_repo_items</text>
</g>
<!-- User&#45;&gt;RepositoryManager::Sharing -->
<g id="edge22" class="edge"><title>User&#45;&gt;RepositoryManager::Sharing</title>
<path fill="none" stroke="#5eece5" d="M843.941,-990.283C867.028,-974.078 891.091,-955.461 911.459,-936 969.885,-880.177 982.744,-862.374 1022.46,-792 1094.18,-664.919 1114.55,-629.42 1141.46,-486 1155.39,-411.766 1073.67,-369.991 998.41,-347.534"/>
<ellipse fill="none" stroke="#5eece5" cx="840.422" cy="-992.727" rx="4.00002" ry="4.00002"/>
<polygon fill="#5eece5" stroke="#5eece5" points="998.405,-347.533 990.046,-340.434 993.601,-346.145 988.797,-344.758 988.797,-344.758 988.797,-344.758 993.601,-346.145 987.549,-349.081 998.405,-347.533 998.405,-347.533"/>
<text text-anchor="middle" x="1090.96" y="-779.4" font-family="Times Roman,serif" font-size="14.00">sharings_owners</text>
</g>
<!-- User&#45;&gt;RepositoryManager::Sharing -->
<g id="edge18" class="edge"><title>User&#45;&gt;RepositoryManager::Sharing</title>
<path fill="none" stroke="#fd99c4" d="M831.433,-966.994C878.451,-912.637 933.766,-836.034 956.459,-756 987.012,-648.248 978.164,-613.877 956.459,-504 952.924,-486.1 947.587,-467.743 941.366,-449.918"/>
<polygon fill="#fd99c4" stroke="#fd99c4" points="831.145,-967.323 821.174,-971.887 827.853,-971.086 824.561,-974.85 824.561,-974.85 824.561,-974.85 827.853,-971.086 827.948,-977.813 831.145,-967.323 831.145,-967.323"/>
<polygon fill="#fd99c4" stroke="#fd99c4" points="941.211,-449.485 942.06,-438.553 939.518,-444.781 937.825,-440.076 937.825,-440.076 937.825,-440.076 939.518,-444.781 933.591,-441.599 941.211,-449.485 941.211,-449.485"/>
<text text-anchor="middle" x="979.459" y="-779.4" font-family="Times Roman,serif" font-size="14.00">sharings</text>
</g>
<!-- Group -->
<g id="node8" class="node"><title>Group</title>
<polyline fill="none" stroke="black" points="683.959,-811 824.959,-811 "/>
<path fill="none" stroke="black" d="M824.959,-811C830.959,-811 836.959,-817 836.959,-823"/>
<polyline fill="none" stroke="black" points="836.959,-823 836.959,-923 "/>
<path fill="none" stroke="black" d="M836.959,-923C836.959,-929 830.959,-935 824.959,-935"/>
<polyline fill="none" stroke="black" points="824.959,-935 683.959,-935 "/>
<path fill="none" stroke="black" d="M683.959,-935C677.959,-935 671.959,-929 671.959,-923"/>
<polyline fill="none" stroke="black" points="671.959,-923 671.959,-823 "/>
<path fill="none" stroke="black" d="M671.959,-823C671.959,-817 677.959,-811 683.959,-811"/>
<text text-anchor="middle" x="754.459" y="-918.4" font-family="Times Roman,serif" font-size="14.00">Group</text>
<polyline fill="none" stroke="black" points="671.959,-909 836.959,-909 "/>
<text text-anchor="start" x="679.959" y="-892.4" font-family="Times Roman,serif" font-size="14.00">id :integer</text>
<text text-anchor="start" x="679.959" y="-874.4" font-family="Times Roman,serif" font-size="14.00">name :string</text>
<text text-anchor="start" x="679.959" y="-856.4" font-family="Times Roman,serif" font-size="14.00">description :text</text>
<text text-anchor="start" x="679.959" y="-838.4" font-family="Times Roman,serif" font-size="14.00">created_at :datetime</text>
<text text-anchor="start" x="679.959" y="-820.4" font-family="Times Roman,serif" font-size="14.00">updated_at :datetime</text>
</g>
<!-- User&#45;&gt;Group -->
<g id="edge16" class="edge"><title>User&#45;&gt;Group</title>
<path fill="none" stroke="#7679c0" d="M754.459,-964.411C754.459,-958.093 754.459,-951.741 754.459,-945.488"/>
<polygon fill="#7679c0" stroke="#7679c0" points="754.46,-964.635 749.959,-974.635 754.46,-969.635 754.459,-974.635 754.459,-974.635 754.459,-974.635 754.46,-969.635 758.959,-974.636 754.46,-964.635 754.46,-964.635"/>
<polygon fill="#7679c0" stroke="#7679c0" points="754.46,-945.085 758.959,-935.085 754.46,-940.085 754.459,-935.085 754.459,-935.085 754.459,-935.085 754.46,-940.085 749.959,-935.085 754.46,-945.085 754.46,-945.085"/>
</g>
<!-- Group&#45;&gt;RepositoryManager::SharingsMember -->
<g id="edge36" class="edge"><title>Group&#45;&gt;RepositoryManager::SharingsMember</title>
<path fill="none" stroke="#016f1e" d="M844.624,-832.501C865.02,-824.291 886.768,-816.265 907.459,-810 946.501,-798.179 969.223,-821.44 997.459,-792 1019.5,-769.02 1076.76,-336.915 1100.21,-153.369"/>
<ellipse fill="none" stroke="#016f1e" cx="840.881" cy="-834.024" rx="4.00002" ry="4.00002"/>
<polygon fill="#016f1e" stroke="#016f1e" points="1100.24,-153.15 1105.97,-143.8 1100.87,-148.19 1101.51,-143.23 1101.51,-143.23 1101.51,-143.23 1100.87,-148.19 1097.04,-142.661 1100.24,-153.15 1100.24,-153.15"/>
<text text-anchor="middle" x="1122.96" y="-473.4" font-family="Times Roman,serif" font-size="14.00">sharings_members</text>
</g>
<!-- Group&#45;&gt;RepositoryManager::RepoItem -->
<g id="edge40" class="edge"><title>Group&#45;&gt;RepositoryManager::RepoItem</title>
<path fill="none" stroke="#71cc16" d="M664.867,-816.86C652.514,-808.698 640.086,-800.26 628.459,-792 617.878,-784.482 616.566,-780.719 605.459,-774 543.026,-736.232 468.973,-702.211 407.94,-676.732"/>
<ellipse fill="none" stroke="#71cc16" cx="668.373" cy="-819.165" rx="4.00002" ry="4.00002"/>
<polygon fill="#71cc16" stroke="#71cc16" points="407.883,-676.709 400.371,-668.72 403.265,-674.793 398.646,-672.877 398.646,-672.877 398.646,-672.877 403.265,-674.793 396.922,-677.033 407.883,-676.709 407.883,-676.709"/>
<text text-anchor="middle" x="666.459" y="-779.4" font-family="Times Roman,serif" font-size="14.00">repo_items</text>
</g>
<!-- Group&#45;&gt;RepositoryManager::RepoItem -->
<g id="edge42" class="edge"><title>Group&#45;&gt;RepositoryManager::RepoItem</title>
<path fill="none" stroke="#266586" d="M727.249,-801.988C720.957,-791.613 713.414,-781.813 704.459,-774 621.261,-701.405 499.572,-664.926 408.924,-646.897"/>
<polygon fill="#266586" stroke="#266586" points="727.315,-802.106 728.327,-813.025 729.779,-806.457 732.243,-810.807 732.243,-810.807 732.243,-810.807 729.779,-806.457 736.159,-808.59 727.315,-802.106 727.315,-802.106"/>
<polygon fill="#266586" stroke="#266586" points="408.682,-646.85 399.721,-640.529 403.773,-645.898 398.864,-644.946 398.864,-644.946 398.864,-644.946 403.773,-645.898 398.008,-649.364 408.682,-646.85 408.682,-646.85"/>
<text text-anchor="middle" x="786.459" y="-779.4" font-family="Times Roman,serif" font-size="14.00">shared_repo_items</text>
</g>
<!-- Group&#45;&gt;RepositoryManager::RepoItem -->
<g id="edge44" class="edge"><title>Group&#45;&gt;RepositoryManager::RepoItem</title>
<path fill="none" stroke="#d1eedf" d="M664.254,-824.351C650.566,-818.627 636.365,-813.564 622.459,-810 588.178,-801.213 330.152,-816.338 304.459,-792 296.281,-784.252 290.21,-774.996 285.79,-764.888"/>
<ellipse fill="none" stroke="#d1eedf" cx="668.125" cy="-826.015" rx="4.00002" ry="4.00002"/>
<polygon fill="#d1eedf" stroke="#d1eedf" points="285.732,-764.734 286.389,-753.787 283.957,-760.059 282.182,-755.385 282.182,-755.385 282.182,-755.385 283.957,-760.059 277.975,-756.982 285.732,-764.734 285.732,-764.734"/>
<text text-anchor="middle" x="360.459" y="-779.4" font-family="Times Roman,serif" font-size="14.00">root_repo_items</text>
</g>
<!-- Group&#45;&gt;RepositoryManager::RepoItem -->
<g id="edge46" class="edge"><title>Group&#45;&gt;RepositoryManager::RepoItem</title>
<path fill="none" stroke="#17f71a" d="M662.219,-824.048C649.142,-818.573 635.652,-813.66 622.459,-810 542.003,-787.678 510.217,-829.185 435.459,-792 432.597,-790.576 421.044,-778.821 405.542,-762.235"/>
<polygon fill="#17f71a" stroke="#17f71a" points="662.478,-824.16 669.875,-832.256 667.068,-826.142 671.659,-828.124 671.659,-828.124 671.659,-828.124 667.068,-826.142 673.443,-823.993 662.478,-824.16 662.478,-824.16"/>
<polygon fill="#17f71a" stroke="#17f71a" points="405.48,-762.169 401.965,-751.782 402.075,-758.508 398.67,-754.847 398.67,-754.847 398.67,-754.847 402.075,-758.508 395.375,-757.912 405.48,-762.169 405.48,-762.169"/>
<text text-anchor="middle" x="518.459" y="-779.4" font-family="Times Roman,serif" font-size="14.00">root_shared_repo_items</text>
</g>
<!-- Group&#45;&gt;RepositoryManager::Sharing -->
<g id="edge34" class="edge"><title>Group&#45;&gt;RepositoryManager::Sharing</title>
<path fill="none" stroke="#eaeaf5" d="M845.445,-832.014C860.302,-821.178 873.684,-807.939 882.459,-792 898.532,-762.808 894.005,-578.83 888.679,-450.444"/>
<polygon fill="#eaeaf5" stroke="#eaeaf5" points="845.296,-832.117 834.507,-834.082 841.178,-834.953 837.059,-837.788 837.059,-837.788 837.059,-837.788 841.178,-834.953 839.612,-841.495 845.296,-832.117 845.296,-832.117"/>
<polygon fill="#eaeaf5" stroke="#eaeaf5" points="888.666,-450.131 892.741,-439.95 888.456,-445.135 888.245,-440.139 888.245,-440.139 888.245,-440.139 888.456,-445.135 883.749,-440.329 888.666,-450.131 888.666,-450.131"/>
<text text-anchor="middle" x="923.459" y="-626.4" font-family="Times Roman,serif" font-size="14.00">sharings</text>
</g>
<!-- Group&#45;&gt;RepositoryManager::Sharing -->
<g id="edge38" class="edge"><title>Group&#45;&gt;RepositoryManager::Sharing</title>
<path fill="none" stroke="#13f7e8" d="M843.188,-824.8C860.647,-809.285 869.717,-791.55 855.459,-774 830.837,-743.69 794.082,-786.31 769.459,-756 698.84,-669.07 738.476,-611.629 769.459,-504 774.805,-485.43 782.693,-466.926 791.859,-449.236"/>
<ellipse fill="none" stroke="#13f7e8" cx="840.042" cy="-827.415" rx="4.00002" ry="4.00002"/>
<polygon fill="#13f7e8" stroke="#13f7e8" points="792.047,-448.883 800.73,-442.185 794.405,-444.473 796.762,-440.064 796.762,-440.064 796.762,-440.064 794.405,-444.473 792.793,-437.942 792.047,-448.883 792.047,-448.883"/>
<text text-anchor="middle" x="827.959" y="-626.4" font-family="Times Roman,serif" font-size="14.00">sharings_owners</text>
</g>
<!-- ActiveRecord::Base -->
<g id="node10" class="node"><title>ActiveRecord::Base</title>
<ellipse fill="none" stroke="black" cx="963.459" cy="-1203" rx="104.151" ry="18.3848"/>
<text text-anchor="middle" x="963.459" y="-1199.4" font-family="Times Roman,serif" font-size="14.00">ActiveRecord::Base</text>
</g>
<!-- ActiveRecord::Base&#45;&gt;RepositoryManager::SharingsMember -->
<g id="edge4" class="edge"><title>ActiveRecord::Base&#45;&gt;RepositoryManager::SharingsMember</title>
<path fill="none" stroke="black" d="M1058.7,-1195.42C1131.82,-1186.02 1232.88,-1164.99 1309.46,-1118 1345.45,-1095.91 1371.46,-1088.23 1371.46,-1046 1371.46,-1046 1371.46,-1046 1371.46,-324 1371.46,-246.212 1310.72,-184.829 1247.84,-142.126"/>
</g>
<!-- ActiveRecord::Base&#45;&gt;RepositoryManager::RepoItem -->
<g id="edge8" class="edge"><title>ActiveRecord::Base&#45;&gt;RepositoryManager::RepoItem</title>
<path fill="none" stroke="black" d="M926.717,-1185.59C904.934,-1175.81 876.564,-1164 850.459,-1156 769.371,-1131.15 745.919,-1137.83 663.459,-1118 374.686,-1048.56 194.714,-1176.51 20.4595,-936 -12.3961,-890.651 -0.229718,-862.038 20.4595,-810 46.9828,-743.288 114.109,-698.15 174.288,-669.76"/>
</g>
<!-- ActiveRecord::Base&#45;&gt;RepositoryManager::Sharing -->
<g id="edge14" class="edge"><title>ActiveRecord::Base&#45;&gt;RepositoryManager::Sharing</title>
<path fill="none" stroke="black" d="M1030.89,-1188.86C1137.61,-1164.51 1333.46,-1110.98 1333.46,-1046 1333.46,-1046 1333.46,-1046 1333.46,-783 1333.46,-658.542 1382.67,-604.651 1309.46,-504 1234.57,-401.042 1089.1,-356.591 988.93,-337.656"/>
</g>
<!-- ActiveRecord::Base&#45;&gt;User -->
<g id="edge32" class="edge"><title>ActiveRecord::Base&#45;&gt;User</title>
<path fill="none" stroke="black" d="M939.485,-1184.99C914.502,-1166.22 873.939,-1135.75 837.151,-1108.12"/>
</g>
<!-- ActiveRecord::Base&#45;&gt;Group -->
<g id="edge48" class="edge"><title>ActiveRecord::Base&#45;&gt;Group</title>
<path fill="none" stroke="black" d="M955.784,-1184.28C938.856,-1144 895.796,-1046.86 845.459,-974 836.337,-960.795 825.64,-947.48 814.849,-935.043"/>
</g>
</g>
</svg>
